<?xml version="1.0" encoding="UTF-8"?>
<svg viewBox="0 0 24 24" xmlns="http://www.w3.org/2000/svg">
  <circle cx="12" cy="12" r="12" fill="#2D2D2D"/>
  <path d="M12 7.5c1.5 0 1.7 0 2.3.1.6 0 .9.1 1.1.2.3.1.5.2.7.4.2.2.3.4.4.7.1.2.2.5.2 1.1 0 .6.1.8.1 2.3 0 1.5 0 1.7-.1 2.3 0 .6-.1.9-.2 1.1-.1.3-.2.5-.4.7-.2.2-.4.3-.7.4-.2.1-.5.2-1.1.2-.6 0-.8.1-2.3.1-1.5 0-1.7 0-2.3-.1-.6 0-.9-.1-1.1-.2-.3-.1-.5-.2-.7-.4-.2-.2-.3-.4-.4-.7-.1-.2-.2-.5-.2-1.1 0-.6-.1-.8-.1-2.3 0-1.5 0-1.7.1-2.3 0-.6.1-.9.2-1.1.1-.3.2-.5.4-.7.2-.2.4-.3.7-.4.2-.1.5-.2 1.1-.2.6 0 .8-.1 2.3-.1zM12 6.5c-1.5 0-1.7 0-2.3.1-.6 0-1 .1-1.4.3-.4.1-.7.3-1 .6-.3.3-.5.6-.6 1-.2.4-.3.8-.3 1.4 0 .6-.1.8-.1 2.3 0 1.5 0 1.7.1 2.3 0 .6.1 1 .3 1.4.1.4.3.7.6 1 .3.3.6.5 1 .6.4.2.8.3 1.4.3.6 0 .8.1 2.3.1 1.5 0 1.7 0 2.3-.1.6 0 1-.1 1.4-.3.4-.1.7-.3 1-.6.3-.3.5-.6.6-1 .2-.4.3-.8.3-1.4 0-.6.1-.8.1-2.3 0-1.5 0-1.7-.1-2.3 0-.6-.1-1-.3-1.4-.1-.4-.3-.7-.6-1-.3-.3-.6-.5-1-.6-.4-.2-.8-.3-1.4-.3-.6 0-.8-.1-2.3-.1z" fill="#fff"/>
  <path d="M12 9c-1.7 0-3 1.3-3 3s1.3 3 3 3 3-1.3 3-3-1.3-3-3-3zm0 5c-1.1 0-2-.9-2-2s.9-2 2-2 2 .9 2 2-.9 2-2 2z" fill="#fff"/>
  <circle cx="15.1" cy="8.9" r=".7" fill="#fff"/>
</svg>