<?xml version="1.0" encoding="UTF-8"?>
<svg viewBox="0 0 24 24" fill="#339933" xmlns="http://www.w3.org/2000/svg">
  <path d="M12 1.85c-.27 0-.55.07-.78.2l-7.44 4.3c-.48.28-.78.8-.78 1.36v8.58c0 .56.3 1.08.78 1.36l1.95 1.12c.95.46 1.27.47 1.71.47 1.4 0 2.21-.85 2.21-2.33V8.44c0-.12-.1-.22-.22-.22H8.5c-.13 0-.23.1-.23.22v8.47c0 .66-.68 1.31-1.77.76L4.45 16.5c-.06-.04-.1-.11-.1-.18V7.72c0-.07.04-.14.1-.18l7.42-4.28c.06-.04.16-.04.22 0l7.42 4.28c.06.04.1.11.1.18v8.58c0 .07-.04.14-.1.18l-7.42 4.28c-.06.04-.16.04-.22 0l-1.9-1.12c-.06-.03-.13-.04-.19-.01-.52.31-.63.36-1.12.51-.12.04-.31.11.07.32l2.48 1.47c.24.14.5.21.78.21.27 0 .54-.07.78-.21l7.42-4.28c.48-.28.78-.8.78-1.36V7.72c0-.56-.3-1.08-.78-1.36l-7.42-4.3c-.23-.13-.5-.2-.78-.2"/>
</svg>