<?xml version="1.0" encoding="UTF-8"?>
<svg viewBox="0 0 24 24" fill="#3178C6" xmlns="http://www.w3.org/2000/svg">
  <path d="M1.125 0C.502 0 0 .502 0 1.125v21.75C0 23.498.502 24 1.125 24h21.75c.623 0 1.125-.502 1.125-1.125V1.125C24 .502 23.498 0 22.875 0h-21.75zm17.363 9.75c.612 0 1.154.037 1.627.111.495.075.951.182 1.367.321v2.545a8.235 8.235 0 00-1.401-.643 4.397 4.397 0 00-1.48-.264c-.381 0-.743.067-1.086.201-.345.135-.644.332-.898.593a2.752 2.752 0 00-.594.9c-.14.344-.21.721-.21 1.133 0 .412.067.785.201 1.119.135.332.333.621.594.867.262.247.576.438.943.573.366.134.77.201 1.211.201.418 0 .823-.062 1.215-.187.393-.126.758-.311 1.095-.558v2.566c-.428.155-.888.268-1.38.342-.492.074-.987.111-1.484.111a6.57 6.57 0 01-2.287-.399 5.324 5.324 0 01-1.849-1.152 5.335 5.335 0 01-1.236-1.822c-.299-.722-.447-1.539-.447-2.451 0-.911.158-1.724.474-2.438a5.564 5.564 0 011.31-1.826 5.626 5.626 0 011.936-1.148 6.96 6.96 0 012.361-.395zm-6.951.24h6.006v2.34h-3.492v10.83h-2.514V12.33h-3.491V9.99h3.491z"/>
</svg>