<?xml version="1.0" encoding="UTF-8"?>
<svg viewBox="0 0 24 24" xmlns="http://www.w3.org/2000/svg">
  <circle cx="12" cy="12" r="12" fill="#2D2D2D"/>
  <path d="M19.4 10.79c0-3.53-3.53-6.4-7.87-6.4S3.66 7.26 3.66 10.79c0 3.16 2.8 5.81 6.59 6.31.26.05.6.17.69.38.08.2.05.5.03.69l-.11.67c-.03.2-.16.77.68.42.83-.35 4.5-2.65 6.14-4.53 1.13-1.24 1.68-2.5 1.68-3.94zm-10.6 1.83a.2.2 0 0 1-.2.2H6.65a.2.2 0 0 1-.2-.2V8.77a.2.2 0 0 1 .2-.2h.46a.2.2 0 0 1 .2.2v3.39h1.29a.2.2 0 0 1 .2.2v.46zm1.34 0a.2.2 0 0 1-.2.2h-.46a.2.2 0 0 1-.2-.2V8.77a.2.2 0 0 1 .2-.2h.46a.2.2 0 0 1 .2.2v3.85zm4.13 0a.2.2 0 0 1-.2.2h-.46a.2.2 0 0 1-.16-.08l-1.74-2.35v2.23a.2.2 0 0 1-.2.2h-.46a.2.2 0 0 1-.2-.2V8.77a.2.2 0 0 1 .2-.2h.46a.2.2 0 0 1 .16.08l1.74 2.35V8.77a.2.2 0 0 1 .2-.2h.46a.2.2 0 0 1 .2.2v3.85zm2.75-3.19a.2.2 0 0 1-.2.2h-1.29v.72h1.29a.2.2 0 0 1 .2.2v.46a.2.2 0 0 1-.2.2h-1.29v.72h1.29a.2.2 0 0 1 .2.2v.46a.2.2 0 0 1-.2.2h-1.95a.2.2 0 0 1-.2-.2V8.77a.2.2 0 0 1 .2-.2h1.95a.2.2 0 0 1 .2.2v.46z" fill="#fff"/>
</svg>
